<?xml version="1.0" encoding="UTF-8" standalone="no"?>
<!DOCTYPE svg PUBLIC "-//W3C//DTD SVG 1.1//EN"
 "http://www.w3.org/Graphics/SVG/1.1/DTD/svg11.dtd">
<!-- Generated by graphviz version 2.38.0 (20140413.2041)
 -->
<!-- Title: Ogre::RTShader::SubRenderStateFactory Pages: 1 -->
<svg width="505pt" height="666pt"
 viewBox="0.00 0.00 505.00 666.00" xmlns="http://www.w3.org/2000/svg" xmlns:xlink="http://www.w3.org/1999/xlink">
<g id="graph0" class="graph" transform="scale(1 1) rotate(0) translate(4 662)">
<title>Ogre::RTShader::SubRenderStateFactory</title>
<!-- Node1 -->
<g id="node1" class="node"><title>Node1</title>
<polygon fill="#bfbfbf" stroke="black" points="152,-318.5 152,-348.5 295,-348.5 295,-318.5 152,-318.5"/>
<text text-anchor="start" x="160" y="-336.5" font-family="Helvetica,sans-Serif" font-size="10.00">Ogre::RTShader::SubRender</text>
<text text-anchor="middle" x="223.5" y="-325.5" font-family="Helvetica,sans-Serif" font-size="10.00">StateFactory</text>
</g>
<!-- Node3 -->
<g id="node3" class="node"><title>Node3</title>
<g id="a_node3"><a xlink:href="class_ogre_1_1_r_t_shader_1_1_f_f_p_alpha_test_factory.html" target="_top" xlink:title="Ogre::RTShader::FFPAlpha\lTestFactory">
<polygon fill="none" stroke="black" points="345.5,-627.5 345.5,-657.5 482.5,-657.5 482.5,-627.5 345.5,-627.5"/>
<text text-anchor="start" x="353.5" y="-645.5" font-family="Helvetica,sans-Serif" font-size="10.00">Ogre::RTShader::FFPAlpha</text>
<text text-anchor="middle" x="414" y="-634.5" font-family="Helvetica,sans-Serif" font-size="10.00">TestFactory</text>
</a>
</g>
</g>
<!-- Node1&#45;&gt;Node3 -->
<g id="edge2" class="edge"><title>Node1&#45;&gt;Node3</title>
<path fill="none" stroke="midnightblue" d="M226.519,-358.769C232.316,-414.123 253.93,-546.852 331,-618.5 335.237,-622.439 340.086,-625.735 345.262,-628.492"/>
<polygon fill="midnightblue" stroke="midnightblue" points="229.999,-358.39 225.559,-348.77 223.031,-359.059 229.999,-358.39"/>
</g>
<!-- Node4 -->
<g id="node4" class="node"><title>Node4</title>
<g id="a_node4"><a xlink:href="class_ogre_1_1_r_t_shader_1_1_f_f_p_colour_factory.html" target="_top" xlink:title="A factory that enables creation of FFPColour instances. ">
<polygon fill="none" stroke="black" points="343.5,-578.5 343.5,-608.5 484.5,-608.5 484.5,-578.5 343.5,-578.5"/>
<text text-anchor="start" x="351.5" y="-596.5" font-family="Helvetica,sans-Serif" font-size="10.00">Ogre::RTShader::FFPColour</text>
<text text-anchor="middle" x="414" y="-585.5" font-family="Helvetica,sans-Serif" font-size="10.00">Factory</text>
</a>
</g>
</g>
<!-- Node1&#45;&gt;Node4 -->
<g id="edge3" class="edge"><title>Node1&#45;&gt;Node4</title>
<path fill="none" stroke="midnightblue" d="M228.817,-358.548C238.389,-406.449 265.915,-511.346 331,-568.5 335.361,-572.33 340.297,-575.573 345.531,-578.32"/>
<polygon fill="midnightblue" stroke="midnightblue" points="232.251,-357.873 226.945,-348.703 225.375,-359.181 232.251,-357.873"/>
</g>
<!-- Node5 -->
<g id="node5" class="node"><title>Node5</title>
<g id="a_node5"><a xlink:href="class_ogre_1_1_r_t_shader_1_1_f_f_p_fog_factory.html" target="_top" xlink:title="A factory that enables creation of FFPFog instances. ">
<polygon fill="none" stroke="black" points="333,-540 333,-559 495,-559 495,-540 333,-540"/>
<text text-anchor="middle" x="414" y="-547" font-family="Helvetica,sans-Serif" font-size="10.00">Ogre::RTShader::FFPFogFactory</text>
</a>
</g>
</g>
<!-- Node1&#45;&gt;Node5 -->
<g id="edge4" class="edge"><title>Node1&#45;&gt;Node5</title>
<path fill="none" stroke="midnightblue" d="M230.736,-358.392C242.665,-400.655 272.856,-486.167 331,-530.5 335.997,-534.31 341.629,-537.376 347.541,-539.841"/>
<polygon fill="midnightblue" stroke="midnightblue" points="234.084,-357.366 228.09,-348.63 227.328,-359.197 234.084,-357.366"/>
</g>
<!-- Node6 -->
<g id="node6" class="node"><title>Node6</title>
<g id="a_node6"><a xlink:href="class_ogre_1_1_r_t_shader_1_1_f_f_p_lighting_factory.html" target="_top" xlink:title="A factory that enables creation of FFPLighting instances. ">
<polygon fill="none" stroke="black" points="341,-490.5 341,-520.5 487,-520.5 487,-490.5 341,-490.5"/>
<text text-anchor="start" x="349" y="-508.5" font-family="Helvetica,sans-Serif" font-size="10.00">Ogre::RTShader::FFPLighting</text>
<text text-anchor="middle" x="414" y="-497.5" font-family="Helvetica,sans-Serif" font-size="10.00">Factory</text>
</a>
</g>
</g>
<!-- Node1&#45;&gt;Node6 -->
<g id="edge5" class="edge"><title>Node1&#45;&gt;Node6</title>
<path fill="none" stroke="midnightblue" d="M235.678,-357.994C251.967,-390.958 285.337,-449.184 331,-481.5 335.843,-484.928 341.175,-487.87 346.724,-490.395"/>
<polygon fill="midnightblue" stroke="midnightblue" points="238.664,-356.127 231.176,-348.631 232.355,-359.16 238.664,-356.127"/>
</g>
<!-- Node7 -->
<g id="node7" class="node"><title>Node7</title>
<g id="a_node7"><a xlink:href="class_ogre_1_1_r_t_shader_1_1_f_f_p_texturing_factory.html" target="_top" xlink:title="A factory that enables creation of FFPTexturing instances. ">
<polygon fill="none" stroke="black" points="337.5,-441.5 337.5,-471.5 490.5,-471.5 490.5,-441.5 337.5,-441.5"/>
<text text-anchor="start" x="345.5" y="-459.5" font-family="Helvetica,sans-Serif" font-size="10.00">Ogre::RTShader::FFPTexturing</text>
<text text-anchor="middle" x="414" y="-448.5" font-family="Helvetica,sans-Serif" font-size="10.00">Factory</text>
</a>
</g>
</g>
<!-- Node1&#45;&gt;Node7 -->
<g id="edge6" class="edge"><title>Node1&#45;&gt;Node7</title>
<path fill="none" stroke="midnightblue" d="M243.268,-356.273C262.934,-378.728 295.816,-412.503 331,-432.5 336.932,-435.872 343.38,-438.806 349.967,-441.353"/>
<polygon fill="midnightblue" stroke="midnightblue" points="245.812,-353.863 236.641,-348.559 240.502,-358.425 245.812,-353.863"/>
</g>
<!-- Node8 -->
<g id="node8" class="node"><title>Node8</title>
<g id="a_node8"><a xlink:href="class_ogre_1_1_r_t_shader_1_1_f_f_p_transform_factory.html" target="_top" xlink:title="A factory that enables creation of FFPTransform instances. ">
<polygon fill="none" stroke="black" points="335.5,-392.5 335.5,-422.5 492.5,-422.5 492.5,-392.5 335.5,-392.5"/>
<text text-anchor="start" x="343.5" y="-410.5" font-family="Helvetica,sans-Serif" font-size="10.00">Ogre::RTShader::FFPTransform</text>
<text text-anchor="middle" x="414" y="-399.5" font-family="Helvetica,sans-Serif" font-size="10.00">Factory</text>
</a>
</g>
</g>
<!-- Node1&#45;&gt;Node8 -->
<g id="edge7" class="edge"><title>Node1&#45;&gt;Node8</title>
<path fill="none" stroke="midnightblue" d="M262.472,-353.073C282.529,-362.963 307.747,-374.699 331,-383.5 339.324,-386.651 348.25,-389.643 357.039,-392.377"/>
<polygon fill="midnightblue" stroke="midnightblue" points="263.87,-349.86 253.359,-348.532 260.748,-356.125 263.87,-349.86"/>
</g>
<!-- Node9 -->
<g id="node9" class="node"><title>Node9</title>
<g id="a_node9"><a xlink:href="class_ogre_1_1_r_t_shader_1_1_hardware_skinning_factory.html" target="_top" xlink:title="A factory that enables creation of HardwareSkinning instances. ">
<polygon fill="none" stroke="black" points="346,-343.5 346,-373.5 482,-373.5 482,-343.5 346,-343.5"/>
<text text-anchor="start" x="354" y="-361.5" font-family="Helvetica,sans-Serif" font-size="10.00">Ogre::RTShader::Hardware</text>
<text text-anchor="middle" x="414" y="-350.5" font-family="Helvetica,sans-Serif" font-size="10.00">SkinningFactory</text>
</a>
</g>
</g>
<!-- Node1&#45;&gt;Node9 -->
<g id="edge8" class="edge"><title>Node1&#45;&gt;Node9</title>
<path fill="none" stroke="midnightblue" d="M305.459,-344.237C318.958,-346.028 332.829,-347.867 345.933,-349.605"/>
<polygon fill="midnightblue" stroke="midnightblue" points="305.6,-340.725 295.227,-342.88 304.68,-347.665 305.6,-340.725"/>
</g>
<!-- Node10 -->
<g id="node10" class="node"><title>Node10</title>
<g id="a_node10"><a xlink:href="class_ogre_1_1_r_t_shader_1_1_integrated_p_s_s_m3_factory.html" target="_top" xlink:title="A factory that enables creation of IntegratedPSSM3 instances. ">
<polygon fill="none" stroke="black" points="345.5,-294.5 345.5,-324.5 482.5,-324.5 482.5,-294.5 345.5,-294.5"/>
<text text-anchor="start" x="353.5" y="-312.5" font-family="Helvetica,sans-Serif" font-size="10.00">Ogre::RTShader::Integrated</text>
<text text-anchor="middle" x="414" y="-301.5" font-family="Helvetica,sans-Serif" font-size="10.00">PSSM3Factory</text>
</a>
</g>
</g>
<!-- Node1&#45;&gt;Node10 -->
<g id="edge9" class="edge"><title>Node1&#45;&gt;Node10</title>
<path fill="none" stroke="midnightblue" d="M305.329,-323.209C318.656,-321.512 332.349,-319.769 345.312,-318.118"/>
<polygon fill="midnightblue" stroke="midnightblue" points="304.705,-319.76 295.227,-324.495 305.589,-326.704 304.705,-319.76"/>
</g>
<!-- Node11 -->
<g id="node11" class="node"><title>Node11</title>
<g id="a_node11"><a xlink:href="class_ogre_1_1_r_t_shader_1_1_layered_blending_factory.html" target="_top" xlink:title="A factory that enables creation of LayeredBlending instances. ">
<polygon fill="none" stroke="black" points="331,-245.5 331,-275.5 497,-275.5 497,-245.5 331,-245.5"/>
<text text-anchor="start" x="339" y="-263.5" font-family="Helvetica,sans-Serif" font-size="10.00">Ogre::RTShader::LayeredBlending</text>
<text text-anchor="middle" x="414" y="-252.5" font-family="Helvetica,sans-Serif" font-size="10.00">Factory</text>
</a>
</g>
</g>
<!-- Node1&#45;&gt;Node11 -->
<g id="edge10" class="edge"><title>Node1&#45;&gt;Node11</title>
<path fill="none" stroke="midnightblue" d="M263.37,-313.951C283.296,-304.358 308.126,-293.057 331,-284.5 339.475,-281.33 348.567,-278.308 357.5,-275.543"/>
<polygon fill="midnightblue" stroke="midnightblue" points="261.761,-310.841 254.299,-318.362 264.822,-317.136 261.761,-310.841"/>
</g>
<!-- Node12 -->
<g id="node12" class="node"><title>Node12</title>
<g id="a_node12"><a xlink:href="class_ogre_1_1_r_t_shader_1_1_normal_map_lighting_factory.html" target="_top" xlink:title="A factory that enables creation of NormalMapLighting instances. ">
<polygon fill="none" stroke="black" points="342,-196.5 342,-226.5 486,-226.5 486,-196.5 342,-196.5"/>
<text text-anchor="start" x="350" y="-214.5" font-family="Helvetica,sans-Serif" font-size="10.00">Ogre::RTShader::NormalMap</text>
<text text-anchor="middle" x="414" y="-203.5" font-family="Helvetica,sans-Serif" font-size="10.00">LightingFactory</text>
</a>
</g>
</g>
<!-- Node1&#45;&gt;Node12 -->
<g id="edge11" class="edge"><title>Node1&#45;&gt;Node12</title>
<path fill="none" stroke="midnightblue" d="M243.645,-310.594C263.385,-288.373 296.125,-255.205 331,-235.5 337.07,-232.07 343.675,-229.091 350.414,-226.513"/>
<polygon fill="midnightblue" stroke="midnightblue" points="240.913,-308.402 236.981,-318.24 246.19,-313.001 240.913,-308.402"/>
</g>
<!-- Node13 -->
<g id="node13" class="node"><title>Node13</title>
<g id="a_node13"><a xlink:href="class_ogre_1_1_r_t_shader_1_1_p_b_r_lighting_factory.html" target="_top" xlink:title="A factory that enables creation of NormalMapLighting instances. ">
<polygon fill="none" stroke="black" points="339.5,-147.5 339.5,-177.5 488.5,-177.5 488.5,-147.5 339.5,-147.5"/>
<text text-anchor="start" x="347.5" y="-165.5" font-family="Helvetica,sans-Serif" font-size="10.00">Ogre::RTShader::PBRLighting</text>
<text text-anchor="middle" x="414" y="-154.5" font-family="Helvetica,sans-Serif" font-size="10.00">Factory</text>
</a>
</g>
</g>
<!-- Node1&#45;&gt;Node13 -->
<g id="edge12" class="edge"><title>Node1&#45;&gt;Node13</title>
<path fill="none" stroke="midnightblue" d="M235.722,-309.172C252.061,-276.431 285.489,-218.599 331,-186.5 335.849,-183.08 341.184,-180.143 346.736,-177.622"/>
<polygon fill="midnightblue" stroke="midnightblue" points="232.426,-307.947 231.205,-318.472 238.722,-311.006 232.426,-307.947"/>
</g>
<!-- Node14 -->
<g id="node14" class="node"><title>Node14</title>
<g id="a_node14"><a xlink:href="class_ogre_1_1_r_t_shader_1_1_per_pixel_lighting_factory.html" target="_top" xlink:title="A factory that enables creation of PerPixelLighting instances. ">
<polygon fill="none" stroke="black" points="348.5,-98.5 348.5,-128.5 479.5,-128.5 479.5,-98.5 348.5,-98.5"/>
<text text-anchor="start" x="356.5" y="-116.5" font-family="Helvetica,sans-Serif" font-size="10.00">Ogre::RTShader::PerPixel</text>
<text text-anchor="middle" x="414" y="-105.5" font-family="Helvetica,sans-Serif" font-size="10.00">LightingFactory</text>
</a>
</g>
</g>
<!-- Node1&#45;&gt;Node14 -->
<g id="edge13" class="edge"><title>Node1&#45;&gt;Node14</title>
<path fill="none" stroke="midnightblue" d="M231.136,-308.772C243.593,-267.134 274.457,-183.121 331,-137.5 336.195,-133.309 342.097,-129.849 348.298,-126.994"/>
<polygon fill="midnightblue" stroke="midnightblue" points="227.769,-307.817 228.361,-318.395 234.495,-309.756 227.769,-307.817"/>
</g>
<!-- Node15 -->
<g id="node15" class="node"><title>Node15</title>
<g id="a_node15"><a xlink:href="class_ogre_1_1_r_t_shader_1_1_texture_atlas_sampler_factory.html" target="_top" xlink:title="A factory that enables creation of TextureAtlasSampler instances. ">
<polygon fill="none" stroke="black" points="339.5,-49.5 339.5,-79.5 488.5,-79.5 488.5,-49.5 339.5,-49.5"/>
<text text-anchor="start" x="347.5" y="-67.5" font-family="Helvetica,sans-Serif" font-size="10.00">Ogre::RTShader::TextureAtlas</text>
<text text-anchor="middle" x="414" y="-56.5" font-family="Helvetica,sans-Serif" font-size="10.00">SamplerFactory</text>
</a>
</g>
</g>
<!-- Node1&#45;&gt;Node15 -->
<g id="edge14" class="edge"><title>Node1&#45;&gt;Node15</title>
<path fill="none" stroke="midnightblue" d="M228.244,-308.368C236.959,-258.835 263.27,-148.233 331,-88.5 334.894,-85.066 339.256,-82.1224 343.885,-79.5993"/>
<polygon fill="midnightblue" stroke="midnightblue" points="224.79,-307.802 226.6,-318.241 231.695,-308.952 224.79,-307.802"/>
</g>
<!-- Node16 -->
<g id="node16" class="node"><title>Node16</title>
<g id="a_node16"><a xlink:href="class_ogre_1_1_r_t_shader_1_1_triplanar_texturing_factory.html" target="_top" xlink:title="A factory that enables creation of TriplanarMapping instances. ">
<polygon fill="none" stroke="black" points="348.5,-0.5 348.5,-30.5 479.5,-30.5 479.5,-0.5 348.5,-0.5"/>
<text text-anchor="start" x="356.5" y="-18.5" font-family="Helvetica,sans-Serif" font-size="10.00">Ogre::RTShader::Triplanar</text>
<text text-anchor="middle" x="414" y="-7.5" font-family="Helvetica,sans-Serif" font-size="10.00">TexturingFactory</text>
</a>
</g>
</g>
<!-- Node1&#45;&gt;Node16 -->
<g id="edge15" class="edge"><title>Node1&#45;&gt;Node16</title>
<path fill="none" stroke="midnightblue" d="M226.185,-308.252C231.339,-251.676 251.791,-113.883 331,-39.5 336.082,-34.7275 342.062,-30.8985 348.439,-27.8273"/>
<polygon fill="midnightblue" stroke="midnightblue" points="222.679,-308.188 225.345,-318.442 229.655,-308.763 222.679,-308.188"/>
</g>
<!-- Node2 -->
<g id="node2" class="node"><title>Node2</title>
<g id="a_node2"><a xlink:href="class_ogre_1_1_allocated_object.html" target="_top" xlink:title="Superclass for all objects that wish to use custom memory allocators when their new / delete operator...">
<polygon fill="none" stroke="black" points="0,-324 0,-343 116,-343 116,-324 0,-324"/>
<text text-anchor="middle" x="58" y="-331" font-family="Helvetica,sans-Serif" font-size="10.00">RTShaderSystemAlloc</text>
</a>
</g>
</g>
<!-- Node2&#45;&gt;Node1 -->
<g id="edge1" class="edge"><title>Node2&#45;&gt;Node1</title>
<path fill="none" stroke="midnightblue" d="M126.321,-333.5C134.737,-333.5 143.365,-333.5 151.83,-333.5"/>
<polygon fill="midnightblue" stroke="midnightblue" points="126.184,-330 116.184,-333.5 126.184,-337 126.184,-330"/>
</g>
</g>
</svg>
