<?xml version="1.0" encoding="UTF-8" standalone="no"?>
<!DOCTYPE svg PUBLIC "-//W3C//DTD SVG 1.1//EN"
 "http://www.w3.org/Graphics/SVG/1.1/DTD/svg11.dtd">
<!-- Generated by graphviz version 2.38.0 (20140413.2041)
 -->
<!-- Title: Ogre::RTShader::PerPixelLighting Pages: 1 -->
<svg width="320pt" height="229pt"
 viewBox="0.00 0.00 319.50 229.00" xmlns="http://www.w3.org/2000/svg" xmlns:xlink="http://www.w3.org/1999/xlink">
<g id="graph0" class="graph" transform="scale(1 1) rotate(0) translate(4 225)">
<title>Ogre::RTShader::PerPixelLighting</title>
<!-- Node1 -->
<g id="node1" class="node"><title>Node1</title>
<polygon fill="#bfbfbf" stroke="black" points="88.5,-67.5 88.5,-97.5 219.5,-97.5 219.5,-67.5 88.5,-67.5"/>
<text text-anchor="start" x="96.5" y="-85.5" font-family="Helvetica,sans-Serif" font-size="10.00">Ogre::RTShader::PerPixel</text>
<text text-anchor="middle" x="154" y="-74.5" font-family="Helvetica,sans-Serif" font-size="10.00">Lighting</text>
</g>
<!-- Node4 -->
<g id="node4" class="node"><title>Node4</title>
<g id="a_node4"><a xlink:href="class_ogre_1_1_r_t_shader_1_1_normal_map_lighting.html" target="_top" xlink:title="Normal Map Lighting extension sub render state implementation. ">
<polygon fill="none" stroke="black" points="0,-0.5 0,-30.5 144,-30.5 144,-0.5 0,-0.5"/>
<text text-anchor="start" x="8" y="-18.5" font-family="Helvetica,sans-Serif" font-size="10.00">Ogre::RTShader::NormalMap</text>
<text text-anchor="middle" x="72" y="-7.5" font-family="Helvetica,sans-Serif" font-size="10.00">Lighting</text>
</a>
</g>
</g>
<!-- Node1&#45;&gt;Node4 -->
<g id="edge3" class="edge"><title>Node1&#45;&gt;Node4</title>
<path fill="none" stroke="midnightblue" d="M128.35,-61.1677C115.811,-51.2283 101.034,-39.5144 89.7581,-30.5765"/>
<polygon fill="midnightblue" stroke="midnightblue" points="126.196,-63.9268 136.207,-67.396 130.545,-58.4412 126.196,-63.9268"/>
</g>
<!-- Node5 -->
<g id="node5" class="node"><title>Node5</title>
<g id="a_node5"><a xlink:href="class_ogre_1_1_r_t_shader_1_1_p_b_r_lighting.html" target="_top" xlink:title="Normal Map Lighting extension sub render state implementation. ">
<polygon fill="none" stroke="black" points="162.5,-6 162.5,-25 311.5,-25 311.5,-6 162.5,-6"/>
<text text-anchor="middle" x="237" y="-13" font-family="Helvetica,sans-Serif" font-size="10.00">Ogre::RTShader::PBRLighting</text>
</a>
</g>
</g>
<!-- Node1&#45;&gt;Node5 -->
<g id="edge4" class="edge"><title>Node1&#45;&gt;Node5</title>
<path fill="none" stroke="midnightblue" d="M180.167,-61.008C195.575,-48.9412 214.265,-34.3046 225.898,-25.1945"/>
<polygon fill="midnightblue" stroke="midnightblue" points="177.725,-58.4747 172.01,-67.396 182.041,-63.9859 177.725,-58.4747"/>
</g>
<!-- Node2 -->
<g id="node2" class="node"><title>Node2</title>
<g id="a_node2"><a xlink:href="class_ogre_1_1_r_t_shader_1_1_sub_render_state.html" target="_top" xlink:title="This class is the base interface of sub part from a shader based rendering pipeline. ">
<polygon fill="none" stroke="black" points="82.5,-134.5 82.5,-164.5 225.5,-164.5 225.5,-134.5 82.5,-134.5"/>
<text text-anchor="start" x="90.5" y="-152.5" font-family="Helvetica,sans-Serif" font-size="10.00">Ogre::RTShader::SubRender</text>
<text text-anchor="middle" x="154" y="-141.5" font-family="Helvetica,sans-Serif" font-size="10.00">State</text>
</a>
</g>
</g>
<!-- Node2&#45;&gt;Node1 -->
<g id="edge1" class="edge"><title>Node2&#45;&gt;Node1</title>
<path fill="none" stroke="midnightblue" d="M154,-124.108C154,-115.154 154,-105.323 154,-97.5765"/>
<polygon fill="midnightblue" stroke="midnightblue" points="150.5,-124.396 154,-134.396 157.5,-124.396 150.5,-124.396"/>
</g>
<!-- Node3 -->
<g id="node3" class="node"><title>Node3</title>
<g id="a_node3"><a xlink:href="class_ogre_1_1_allocated_object.html" target="_top" xlink:title="Superclass for all objects that wish to use custom memory allocators when their new / delete operator...">
<polygon fill="none" stroke="black" points="96,-201.5 96,-220.5 212,-220.5 212,-201.5 96,-201.5"/>
<text text-anchor="middle" x="154" y="-208.5" font-family="Helvetica,sans-Serif" font-size="10.00">RTShaderSystemAlloc</text>
</a>
</g>
</g>
<!-- Node3&#45;&gt;Node2 -->
<g id="edge2" class="edge"><title>Node3&#45;&gt;Node2</title>
<path fill="none" stroke="midnightblue" d="M154,-191.235C154,-182.586 154,-172.497 154,-164.523"/>
<polygon fill="midnightblue" stroke="midnightblue" points="150.5,-191.475 154,-201.475 157.5,-191.475 150.5,-191.475"/>
</g>
</g>
</svg>
