<?xml version="1.0" encoding="UTF-8" standalone="no"?>
<!DOCTYPE svg PUBLIC "-//W3C//DTD SVG 1.1//EN"
 "http://www.w3.org/Graphics/SVG/1.1/DTD/svg11.dtd">
<!-- Generated by graphviz version 2.38.0 (20140413.2041)
 -->
<!-- Title: Ogre::RTShader::PBRLighting Pages: 1 -->
<svg width="157pt" height="218pt"
 viewBox="0.00 0.00 157.00 218.00" xmlns="http://www.w3.org/2000/svg" xmlns:xlink="http://www.w3.org/1999/xlink">
<g id="graph0" class="graph" transform="scale(1 1) rotate(0) translate(4 214)">
<title>Ogre::RTShader::PBRLighting</title>
<!-- Node1 -->
<g id="node1" class="node"><title>Node1</title>
<polygon fill="#bfbfbf" stroke="black" points="-1.42109e-14,-0.5 -1.42109e-14,-19.5 149,-19.5 149,-0.5 -1.42109e-14,-0.5"/>
<text text-anchor="middle" x="74.5" y="-7.5" font-family="Helvetica,sans-Serif" font-size="10.00">Ogre::RTShader::PBRLighting</text>
</g>
<!-- Node2 -->
<g id="node2" class="node"><title>Node2</title>
<g id="a_node2"><a xlink:href="class_ogre_1_1_r_t_shader_1_1_per_pixel_lighting.html" target="_top" xlink:title="Per pixel Lighting extension sub render state implementation. ">
<polygon fill="none" stroke="black" points="9,-56.5 9,-86.5 140,-86.5 140,-56.5 9,-56.5"/>
<text text-anchor="start" x="17" y="-74.5" font-family="Helvetica,sans-Serif" font-size="10.00">Ogre::RTShader::PerPixel</text>
<text text-anchor="middle" x="74.5" y="-63.5" font-family="Helvetica,sans-Serif" font-size="10.00">Lighting</text>
</a>
</g>
</g>
<!-- Node2&#45;&gt;Node1 -->
<g id="edge1" class="edge"><title>Node2&#45;&gt;Node1</title>
<path fill="none" stroke="midnightblue" d="M74.5,-46.2892C74.5,-36.857 74.5,-26.6548 74.5,-19.6578"/>
<polygon fill="midnightblue" stroke="midnightblue" points="71.0001,-46.3993 74.5,-56.3993 78.0001,-46.3994 71.0001,-46.3993"/>
</g>
<!-- Node3 -->
<g id="node3" class="node"><title>Node3</title>
<g id="a_node3"><a xlink:href="class_ogre_1_1_r_t_shader_1_1_sub_render_state.html" target="_top" xlink:title="This class is the base interface of sub part from a shader based rendering pipeline. ">
<polygon fill="none" stroke="black" points="3,-123.5 3,-153.5 146,-153.5 146,-123.5 3,-123.5"/>
<text text-anchor="start" x="11" y="-141.5" font-family="Helvetica,sans-Serif" font-size="10.00">Ogre::RTShader::SubRender</text>
<text text-anchor="middle" x="74.5" y="-130.5" font-family="Helvetica,sans-Serif" font-size="10.00">State</text>
</a>
</g>
</g>
<!-- Node3&#45;&gt;Node2 -->
<g id="edge2" class="edge"><title>Node3&#45;&gt;Node2</title>
<path fill="none" stroke="midnightblue" d="M74.5,-113.108C74.5,-104.154 74.5,-94.3227 74.5,-86.5765"/>
<polygon fill="midnightblue" stroke="midnightblue" points="71.0001,-113.396 74.5,-123.396 78.0001,-113.396 71.0001,-113.396"/>
</g>
<!-- Node4 -->
<g id="node4" class="node"><title>Node4</title>
<g id="a_node4"><a xlink:href="class_ogre_1_1_allocated_object.html" target="_top" xlink:title="Superclass for all objects that wish to use custom memory allocators when their new / delete operator...">
<polygon fill="none" stroke="black" points="16.5,-190.5 16.5,-209.5 132.5,-209.5 132.5,-190.5 16.5,-190.5"/>
<text text-anchor="middle" x="74.5" y="-197.5" font-family="Helvetica,sans-Serif" font-size="10.00">RTShaderSystemAlloc</text>
</a>
</g>
</g>
<!-- Node4&#45;&gt;Node3 -->
<g id="edge3" class="edge"><title>Node4&#45;&gt;Node3</title>
<path fill="none" stroke="midnightblue" d="M74.5,-180.235C74.5,-171.586 74.5,-161.497 74.5,-153.523"/>
<polygon fill="midnightblue" stroke="midnightblue" points="71.0001,-180.475 74.5,-190.475 78.0001,-180.475 71.0001,-180.475"/>
</g>
</g>
</svg>
